<?xml version="1.0" standalone="no"?><!DOCTYPE svg PUBLIC "-//W3C//DTD SVG 1.1//EN" "http://www.w3.org/Graphics/SVG/1.1/DTD/svg11.dtd"><svg t="1714486881583" class="icon" viewBox="0 0 1024 1024" version="1.1" xmlns="http://www.w3.org/2000/svg" p-id="2714" xmlns:xlink="http://www.w3.org/1999/xlink" width="200" height="200"><path d="M640 661.333333a42.666667 42.666667 0 1 0 0-85.333333H384a42.666667 42.666667 0 1 0 0 85.333333h256z" fill="#000000" p-id="2715"></path><path d="M640 192H384V170.666667a42.666667 42.666667 0 0 0-85.333333 0v21.333333H128v597.333333a85.333333 85.333333 0 0 0 85.333333 85.333334h597.333334a85.333333 85.333333 0 0 0 85.333333-85.333334v-597.333333h-170.666667V170.666667a42.666667 42.666667 0 1 0-85.333333 0v21.333333z m-426.666667 85.333333h597.333334v85.333334H213.333333v-85.333334z m0 512v-341.333333h597.333334v341.333333H213.333333z" fill="#000000" p-id="2716"></path></svg>