<?xml version="1.0" standalone="no"?><!DOCTYPE svg PUBLIC "-//W3C//DTD SVG 1.1//EN" "http://www.w3.org/Graphics/SVG/1.1/DTD/svg11.dtd"><svg t="1714486886114" class="icon" viewBox="0 0 1024 1024" version="1.1" xmlns="http://www.w3.org/2000/svg" p-id="2866" xmlns:xlink="http://www.w3.org/1999/xlink" width="200" height="200"><path d="M512 277.333333a42.666667 42.666667 0 0 1 42.666667 42.666667v156.672a42.666667 42.666667 0 0 0 12.501333 30.165333L640 579.669333A42.666667 42.666667 0 0 1 579.669333 640l-97.834666-97.834667A42.666667 42.666667 0 0 1 469.333333 512V320a42.666667 42.666667 0 0 1 42.666667-42.666667z" fill="#000000" p-id="2867"></path><path d="M896 512a384 384 0 1 1-768 0 384 384 0 0 1 768 0z m-85.333333 0a298.666667 298.666667 0 1 0-597.333334 0 298.666667 298.666667 0 0 0 597.333334 0z" fill="#000000" p-id="2868"></path></svg>