<?xml version="1.0" standalone="no"?><!DOCTYPE svg PUBLIC "-//W3C//DTD SVG 1.1//EN" "http://www.w3.org/Graphics/SVG/1.1/DTD/svg11.dtd"><svg t="1714486900808" class="icon" viewBox="0 0 1024 1024" version="1.1" xmlns="http://www.w3.org/2000/svg" p-id="3477" xmlns:xlink="http://www.w3.org/1999/xlink" width="200" height="200"><path d="M597.333333 42.666667a42.666667 42.666667 0 1 0 0 85.333333h85.333334a42.666667 42.666667 0 0 0 0-85.333333h-85.333334z m-148.736 85.461333a42.666667 42.666667 0 1 0-1.194666-85.333333c-27.989333 0.384-54.869333 1.621333-78.848 13.824a128 128 0 0 0-55.936 55.936c-12.202667 23.978667-13.44 50.858667-13.824 78.848a42.666667 42.666667 0 1 0 85.333333 1.194666c0.426667-29.610667 2.474667-37.333333 4.522667-41.301333a42.666667 42.666667 0 0 1 18.645333-18.645333c3.968-2.048 11.690667-4.138667 41.301333-4.522667z m384-85.333333a42.666667 42.666667 0 1 0-1.152 85.333333c29.568 0.426667 37.290667 2.474667 41.258667 4.522667a42.666667 42.666667 0 0 1 18.645333 18.645333c2.048 3.968 4.138667 11.690667 4.522667 41.301333a42.666667 42.666667 0 0 0 85.333333-1.194666c-0.384-27.989333-1.621333-54.869333-13.824-78.848a128 128 0 0 0-55.936-55.936c-23.978667-12.202667-50.858667-13.44-78.848-13.824zM981.333333 341.333333a42.666667 42.666667 0 1 0-85.333333 0v85.333334a42.666667 42.666667 0 1 0 85.333333 0V341.333333zM221.866667 298.666667h-1.664c-22.485333 0-41.856 0-57.856 1.28-16.853333 1.408-33.664 4.437333-49.792 12.672a128 128 0 0 0-55.936 55.936c-8.234667 16.128-11.264 32.938667-12.629334 49.792C42.666667 434.346667 42.666667 453.76 42.666667 476.202667v327.552c0 22.528 0 41.898667 1.28 57.898666 1.408 16.853333 4.437333 33.664 12.672 49.792a128 128 0 0 0 55.936 55.936c16.128 8.234667 32.938667 11.264 49.792 12.629334 16 1.322667 35.413333 1.322667 57.856 1.322666H547.84c22.485333 0 41.856 0 57.856-1.28 16.853333-1.408 33.664-4.437333 49.792-12.672a128 128 0 0 0 55.936-55.936c8.234667-16.128 11.264-32.938667 12.629333-49.792 1.322667-16 1.322667-35.413333 1.322667-57.856v-327.552c0-22.528 0-41.898667-1.28-57.898666-1.408-16.853333-4.437333-33.664-12.672-49.792a128 128 0 0 0-55.936-55.936c-16.128-8.234667-32.938667-11.264-49.792-12.629334A763.733333 763.733333 0 0 0 547.754667 298.666667H221.866667zM151.296 388.650667c2.133333-1.066667 6.4-2.688 18.005333-3.626667C181.333333 384 197.248 384 221.866667 384h324.266666c24.618667 0 40.490667 0 52.565334 1.024 11.605333 0.938667 15.914667 2.56 18.005333 3.626667a42.666667 42.666667 0 0 1 18.645333 18.645333c1.066667 2.133333 2.688 6.4 3.626667 18.005333 0.981333 12.074667 1.024 27.946667 1.024 52.565334v324.266666c0 24.618667 0 40.490667-1.024 52.565334-0.938667 11.605333-2.56 15.872-3.626667 18.005333a42.666667 42.666667 0 0 1-18.645333 18.645333c-2.133333 1.066667-6.4 2.688-18.005333 3.626667C586.666667 896 570.752 896 546.133333 896H221.866667c-24.618667 0-40.490667 0-52.565334-1.024-11.605333-0.938667-15.914667-2.56-18.005333-3.626667a42.666667 42.666667 0 0 1-18.645333-18.645333c-1.066667-2.133333-2.688-6.4-3.626667-18.005333C128 842.666667 128 826.752 128 802.133333v-324.266666c0-24.618667 0-40.490667 1.024-52.565334 0.938667-11.605333 2.56-15.914667 3.626667-18.005333a42.666667 42.666667 0 0 1 18.645333-18.645333z m829.909333 187.946666a42.666667 42.666667 0 0 0-85.333333-1.194666c-0.426667 29.610667-2.474667 37.333333-4.522667 41.301333a42.666667 42.666667 0 0 1-18.645333 18.645333c-3.968 2.048-11.690667 4.138667-41.301333 4.522667a42.666667 42.666667 0 1 0 1.152 85.333333c28.032-0.384 54.912-1.621333 78.890666-13.824a128 128 0 0 0 55.936-55.936c12.202667-23.978667 13.44-50.858667 13.824-78.848zM384 483.712a32 32 0 0 1 32 32v92.288h92.288a32 32 0 0 1 0 64H416v92.288a32 32 0 0 1-64 0V672H259.712a32 32 0 0 1 0-64H352v-92.288a32 32 0 0 1 32-32z" fill="#000000" p-id="3478"></path></svg>