<?xml version="1.0" standalone="no"?><!DOCTYPE svg PUBLIC "-//W3C//DTD SVG 1.1//EN" "http://www.w3.org/Graphics/SVG/1.1/DTD/svg11.dtd"><svg t="1714486865592" class="icon" viewBox="0 0 1024 1024" version="1.1" xmlns="http://www.w3.org/2000/svg" p-id="2259" xmlns:xlink="http://www.w3.org/1999/xlink" width="200" height="200"><path d="M298.666667 896c-23.466667 0-43.52-8.362667-60.245334-25.045333A82.176 82.176 0 0 1 213.333333 810.666667V256H170.666667V170.666667h213.333333V128h256v42.666667h213.333333v85.333333h-42.666666v554.666667c0 23.466667-8.362667 43.52-25.045334 60.288A82.176 82.176 0 0 1 725.333333 896H298.666667zM725.333333 256H298.666667v554.666667h426.666666V256zM384 725.333333h85.333333V341.333333H384v384z m170.666667 0h85.333333V341.333333h-85.333333v384z" fill="#000000" p-id="2260"></path></svg>