<?xml version="1.0" standalone="no"?><!DOCTYPE svg PUBLIC "-//W3C//DTD SVG 1.1//EN" "http://www.w3.org/Graphics/SVG/1.1/DTD/svg11.dtd"><svg t="1714486889724" class="icon" viewBox="0 0 1024 1024" version="1.1" xmlns="http://www.w3.org/2000/svg" p-id="3020" xmlns:xlink="http://www.w3.org/1999/xlink" width="200" height="200"><path d="M512 85.333333a42.666667 42.666667 0 0 1 42.666667 42.666667v409.002667l140.501333-140.501334a42.666667 42.666667 0 1 1 60.330667 60.330667l-213.333334 213.333333a42.666667 42.666667 0 0 1-60.330666 0l-213.333334-213.333333a42.666667 42.666667 0 0 1 60.330667-60.330667L469.333333 537.002667V128a42.666667 42.666667 0 0 1 42.666667-42.666667zM128 597.333333a42.666667 42.666667 0 0 1 42.666667 42.666667v51.2c0 36.565333 0 61.397333 1.621333 80.597333 1.493333 18.688 4.266667 28.288 7.68 34.944a85.333333 85.333333 0 0 0 37.290667 37.290667c6.656 3.413333 16.213333 6.186667 34.944 7.68C271.402667 853.333333 296.234667 853.333333 332.8 853.333333h358.4c36.565333 0 61.397333 0 80.597333-1.621333 18.688-1.493333 28.288-4.266667 34.944-7.68a85.333333 85.333333 0 0 0 37.290667-37.290667c3.413333-6.656 6.186667-16.213333 7.68-34.944 1.578667-19.2 1.621333-44.032 1.621333-80.597333V640a42.666667 42.666667 0 1 1 85.333334 0V692.949333c0 34.346667 0 62.72-1.877334 85.76-1.962667 24.021333-6.186667 46.08-16.725333 66.773334a170.666667 170.666667 0 0 1-74.581333 74.581333c-20.693333 10.538667-42.752 14.762667-66.730667 16.725333-23.082667 1.877333-51.456 1.877333-85.76 1.877334H331.008c-34.346667 0-62.72 0-85.76-1.877334-24.021333-1.962667-46.08-6.186667-66.773333-16.725333a170.666667 170.666667 0 0 1-74.581334-74.581333c-10.538667-20.693333-14.762667-42.752-16.725333-66.730667C85.333333 755.626667 85.333333 727.296 85.333333 692.992V640a42.666667 42.666667 0 0 1 42.666667-42.666667z" fill="#000000" p-id="3021"></path></svg>