<?xml version="1.0" standalone="no"?><!DOCTYPE svg PUBLIC "-//W3C//DTD SVG 1.1//EN" "http://www.w3.org/Graphics/SVG/1.1/DTD/svg11.dtd"><svg t="1714486897318" class="icon" viewBox="0 0 1024 1024" version="1.1" xmlns="http://www.w3.org/2000/svg" p-id="3326" xmlns:xlink="http://www.w3.org/1999/xlink" width="200" height="200"><path d="M727.594667 121.557333a123.648 123.648 0 1 1 174.848 174.848L537.472 661.333333l-2.346667 2.346667c-10.88 10.88-20.906667 20.949333-33.066666 28.416a119.04 119.04 0 0 1-34.389334 14.208c-13.824 3.328-28.074667 3.328-43.434666 3.328H356.992a42.666667 42.666667 0 0 1-42.666667-42.666667v-63.914666-3.370667c0-15.36 0-29.568 3.285334-43.392a119.04 119.04 0 0 1 14.250666-34.389333c7.466667-12.16 17.493333-22.186667 28.416-33.066667l2.346667-2.346667 364.970667-364.970666z m114.517333 60.330667a38.314667 38.314667 0 0 0-54.186667 0l-364.970666 365.013333c-14.634667 14.634667-16.853333 17.194667-18.346667 19.626667a33.706667 33.706667 0 0 0-4.010667 9.728c-0.64 2.730667-0.938667 6.101333-0.938666 26.837333v21.248h21.248c20.736 0 24.106667-0.298667 26.88-0.938666a33.834667 33.834667 0 0 0 9.685333-4.053334c2.432-1.450667 4.992-3.669333 19.626667-18.304l365.013333-365.013333a38.314667 38.314667 0 0 0 0-54.186667zM309.461333 166.314667h162.048a42.666667 42.666667 0 0 1 0 85.333333H311.210667c-32.768 0-54.784 0-71.722667 1.408-16.469333 1.322667-24.362667 3.754667-29.610667 6.4a71.850667 71.850667 0 0 0-31.36 31.402667c-2.688 5.248-5.12 13.141333-6.4 29.568C170.666667 337.408 170.666667 359.424 170.666667 392.192v320.597333c0 32.768 0 54.784 1.408 71.722667 1.365333 16.469333 3.754667 24.362667 6.4 29.610667l-26.752 13.653333 26.794666-13.653333c6.826667 13.525333 17.877333 24.490667 31.36 31.402666 5.248 2.645333 13.141333 5.034667 29.610667 6.4 16.938667 1.365333 38.954667 1.408 71.68 1.408h320.64c32.768 0 54.784 0 71.765333-1.408 16.426667-1.365333 24.32-3.754667 29.568-6.4 13.525333-6.912 24.490667-17.92 31.402667-31.402666 2.645333-5.248 5.077333-13.141333 6.4-29.610667 1.408-16.938667 1.408-38.954667 1.408-71.722667v-160.298666a42.666667 42.666667 0 0 1 85.333333 0v162.005333c0 30.634667 0 56.149333-1.706666 76.970667-1.749333 21.76-5.589333 42.112-15.402667 61.397333a157.184 157.184 0 0 1-68.693333 68.693333c-19.242667 9.813333-39.68 13.653333-61.397334 15.402667-20.821333 1.706667-46.336 1.706667-76.928 1.706667H309.504c-30.634667 0-56.149333 0-76.970667-1.706667-21.76-1.749333-42.112-5.589333-61.397333-15.402667a157.184 157.184 0 0 1-68.693333-68.693333c-9.813333-19.285333-13.653333-39.68-15.402667-61.397333C85.333333 770.645333 85.333333 745.130667 85.333333 714.538667V390.4c0-30.592 0-56.106667 1.706667-76.928 1.792-21.76 5.589333-42.112 15.402667-61.397333a157.184 157.184 0 0 1 68.693333-68.693334c19.285333-9.813333 39.68-13.653333 61.397333-15.402666 20.821333-1.706667 46.336-1.706667 76.928-1.706667z" fill="#000000" p-id="3327"></path></svg>