<?xml version="1.0" standalone="no"?><!DOCTYPE svg PUBLIC "-//W3C//DTD SVG 1.1//EN" "http://www.w3.org/Graphics/SVG/1.1/DTD/svg11.dtd"><svg t="1714486904110" class="icon" viewBox="0 0 1024 1024" version="1.1" xmlns="http://www.w3.org/2000/svg" p-id="3630" xmlns:xlink="http://www.w3.org/1999/xlink" width="200" height="200"><path d="M938.794667 512.085333C938.794667 276.394667 747.733333 85.333333 512.085333 85.333333 276.394667 85.333333 85.333333 276.394667 85.333333 512.085333c0 235.648 191.061333 426.709333 426.752 426.709334 235.648 0 426.709333-191.061333 426.709334-426.709334zM554.666667 341.333333a42.666667 42.666667 0 1 1-85.333334 0 42.666667 42.666667 0 0 1 85.333334 0z m-85.333334 149.333334a42.666667 42.666667 0 1 1 85.333334 0v170.666666a42.666667 42.666667 0 1 1-85.333334 0v-170.666666z" fill="#000000" p-id="3631"></path></svg>