<?xml version="1.0" standalone="no"?><!DOCTYPE svg PUBLIC "-//W3C//DTD SVG 1.1//EN" "http://www.w3.org/Graphics/SVG/1.1/DTD/svg11.dtd"><svg t="1714486907762" class="icon" viewBox="0 0 1024 1024" version="1.1" xmlns="http://www.w3.org/2000/svg" p-id="3781" xmlns:xlink="http://www.w3.org/1999/xlink" width="200" height="200"><path d="M565.333333 352a53.333333 53.333333 0 1 1-106.666666 0 53.333333 53.333333 0 0 1 106.666666 0zM469.333333 512a42.666667 42.666667 0 1 1 85.333334 0v170.666667a42.666667 42.666667 0 0 1-85.333334 0v-170.666667z" fill="#000000" p-id="3782"></path><path d="M512.085333 85.333333c235.648 0 426.709333 191.061333 426.709334 426.752 0 235.648-191.061333 426.709333-426.709334 426.709334C276.394667 938.794667 85.333333 747.733333 85.333333 512.085333 85.333333 276.394667 276.394667 85.333333 512.085333 85.333333z m0 85.333334a341.418667 341.418667 0 1 0 0 682.794666 341.418667 341.418667 0 0 0 0-682.794666z" fill="#000000" p-id="3783"></path></svg>