<?xml version="1.0" standalone="no"?><!DOCTYPE svg PUBLIC "-//W3C//DTD SVG 1.1//EN" "http://www.w3.org/Graphics/SVG/1.1/DTD/svg11.dtd"><svg t="1714486920410" class="icon" viewBox="0 0 1024 1024" version="1.1" xmlns="http://www.w3.org/2000/svg" p-id="4242" xmlns:xlink="http://www.w3.org/1999/xlink" width="200" height="200"><path d="M128 213.333333m42.666667 0l682.666666 0q42.666667 0 42.666667 42.666667l0 0q0 42.666667-42.666667 42.666667l-682.666666 0q-42.666667 0-42.666667-42.666667l0 0q0-42.666667 42.666667-42.666667Z" fill="#000000" p-id="4243"></path><path d="M384 469.333333m42.666667 0l426.666666 0q42.666667 0 42.666667 42.666667l0 0q0 42.666667-42.666667 42.666667l-426.666666 0q-42.666667 0-42.666667-42.666667l0 0q0-42.666667 42.666667-42.666667Z" fill="#000000" p-id="4244"></path><path d="M135.338667 512L298.666667 384v256l-163.328-128z" fill="#000000" p-id="4245"></path><path d="M128 725.333333m42.666667 0l682.666666 0q42.666667 0 42.666667 42.666667l0 0q0 42.666667-42.666667 42.666667l-682.666666 0q-42.666667 0-42.666667-42.666667l0 0q0-42.666667 42.666667-42.666667Z" fill="#000000" p-id="4246"></path></svg>